# xmcd CD database file
#
# Track frame offsets:
#	150
#	18733
#	39242
#	61127
#	75791
#	102981
#	123679
#	137360
#	152220
#	179100
#	209157
#	227985
#	252758
#	273410
#	297948
#	308872
#	331483
#
# Disc length: 4611 seconds
#
# Revision: 0
# Processed by: cddbd v1.5.1PL0 Copyright (c) Steve Scherf et al.
# Submitted via: CDex 1.51
#
DISCID=f8120111
DTITLE=Dave Chandler's Band - upstairs@thelambandflag
DYEAR=2004
DGENRE=Jazz
TTITLE0=Wolverine Blues
TTITLE1=Davenport Blues
TTITLE2=Look What You Missed
TTITLE3=Runnin' Wild
TTITLE4=Someday You'll Be Sorry
TTITLE5=Blues For Billy
TTITLE6=Gabriel's Horn
TTITLE7=Copenhagen
TTITLE8=I May Be Wrong
TTITLE9=I've Got It Bad
TTITLE10=Sorry
TTITLE11=Drop Me Off In Harlem
TTITLE12=Froggie Moore Rag
TTITLE13=Careless Love
TTITLE14=Cakewalking Babies
TTITLE15=Please Help Me Get Him Off My Mind
TTITLE16=Some Off These Days
EXTD=YEAR: 2004
EXTT0=
EXTT1=
EXTT2=
EXTT3=
EXTT4=
EXTT5=
EXTT6=
EXTT7=
EXTT8=
EXTT9=
EXTT10=
EXTT11=
EXTT12=
EXTT13=
EXTT14=
EXTT15=
EXTT16=
PLAYORDER=
